<svg xmlns="http://www.w3.org/2000/svg" width="263.982" height="44.099" viewBox="0 0 263.982 44.099">
  <g id="グループ_916" data-name="グループ 916" transform="translate(2492.546 146)">
    <g id="グループ_1103" data-name="グループ 1103">
      <path id="パス_772" data-name="パス 772" d="M103.784,379.571a9.893,9.893,0,0,0-2.545,3.559c-.1.242-.152.476-.21.651s-.128.293-.233.293c-.19,0-.138-.228-.063-.9a9.674,9.674,0,0,1,1.83-4.272,15.756,15.756,0,0,1,3.409-3.3,30.184,30.184,0,0,1,17.671-5.66v10.458a36.055,36.055,0,0,0-4.371-.042,29.241,29.241,0,0,0-5.3.8,18.443,18.443,0,0,0-3.559,1.2c-.653.295-.945.5-1.03.38-.106-.152.184-.407.777-.884a18.573,18.573,0,0,1,5.493-3.029,31.209,31.209,0,0,1,3.758-1.157c.871-.213,1.251-.233,1.251-.38s-.361-.137-1.14-.083a33.364,33.364,0,0,0-5.977.956,20.819,20.819,0,0,0-6.419,2.811,16.117,16.117,0,0,0-1.569,1.179c-.339.295-.466.548-.633.441s.022-.316.359-.8a15.236,15.236,0,0,1,5.683-4.883,21.844,21.844,0,0,1,4.375-1.851c.373-.111.78-.208,1.1-.273.4-.084.862-.065.862-.253,0-.152-.441-.111-1.216-.052a15.824,15.824,0,0,0-2.157.329,25.6,25.6,0,0,0-5.175,1.616,17.911,17.911,0,0,0-4.965,3.157" transform="translate(-2583.667 -515.934)" fill="#e6002d"/>
      <path id="パス_773" data-name="パス 773" d="M107.5,397.77a13.1,13.1,0,0,0,5.832-.28v-6.465a20.976,20.976,0,0,1,10.285-2.65,12.6,12.6,0,0,1,3.978.672c3.156,1.074,4.787,3.253,5.091,5.365a6.983,6.983,0,0,1-.106,2.548c-.6,2.4-2.186,4.885-6.292,7.725a28.724,28.724,0,0,1-16.6,4.588,22.577,22.577,0,0,1-6.019-.822,15.538,15.538,0,0,1-2.978-1.2V393.035s.011-.14.138-.142c.185,0,.122.2.284.633a5.926,5.926,0,0,0,1.216,1.909,9.677,9.677,0,0,0,5.176,2.336" transform="translate(-2583.675 -523.241)" fill="#e6002d"/>
    </g>
    <g id="グループ_683" data-name="グループ 683" transform="translate(-2526.546 -169)">
      <path id="パス_766" data-name="パス 766" d="M89.545,431.826H91.2a2.189,2.189,0,0,0-.919-1.869,3.951,3.951,0,0,0-2.279-.5,3.114,3.114,0,0,0-2.7,1.461,2.273,2.273,0,0,0,.031,1.932,2.111,2.111,0,0,0,1.273.912,13.258,13.258,0,0,1,2.592.912.824.824,0,0,1,.188,1.145,1.676,1.676,0,0,1-1.681.532,1.245,1.245,0,0,1-1.085-.77,4.9,4.9,0,0,1-.125-.739h-1.6a2.271,2.271,0,0,0,.549,1.9,3.611,3.611,0,0,0,2.659.864,3.212,3.212,0,0,0,2.985-1.52,2.032,2.032,0,0,0-.351-2.417,5.328,5.328,0,0,0-1.836-.754c-.409-.127-1.682-.409-2-.96a.867.867,0,0,1,.566-1.257,1.993,1.993,0,0,1,1.666.143,1.271,1.271,0,0,1,.415.988" transform="translate(-50.857 -370.515)" fill="#595757"/>
      <rect id="長方形_264" data-name="長方形 264" width="1.733" height="7.838" transform="translate(41.602 59.081)" fill="#595757"/>
      <path id="パス_767" data-name="パス 767" d="M107.992,429.7v6.021l-2.981-6.021h-2.36v7.838h1.482v-6.113l3.026,6.113h2.315V429.7Z" transform="translate(-57.907 -370.616)" fill="#595757"/>
      <path id="パス_768" data-name="パス 768" d="M134.279,429.7v6.021L131.3,429.7h-2.362v7.838h1.483v-6.113l3.026,6.113h2.314V429.7Z" transform="translate(-68.323 -370.616)" fill="#595757"/>
      <path id="パス_769" data-name="パス 769" d="M158.447,429.7v6.021l-2.979-6.021h-2.362v7.838h1.483v-6.113l3.026,6.113h2.316V429.7Z" transform="translate(-77.9 -370.616)" fill="#595757"/>
      <path id="パス_770" data-name="パス 770" d="M147.628,430.978V429.7H142.4v7.838h5.231v-1.283h-3.567v-2h3.318v-1.284h-3.318V430.98Z" transform="translate(-73.657 -370.616)" fill="#595757"/>
      <path id="パス_771" data-name="パス 771" d="M120.993,437.535h1.73l-3.048-7.835H117.71l-3.048,7.839h1.73l.615-1.713h3.373Zm-3.553-2.922,1.253-3.491,1.253,3.491Z" transform="translate(-62.667 -370.615)" fill="#595757"/>
      <path id="パス_774" data-name="パス 774" d="M464.618,392.525a12.232,12.232,0,0,1-.425,3.655,2.9,2.9,0,0,1-1.969,1.73v3.561a6.413,6.413,0,0,0,4.533-1.988,5.448,5.448,0,0,0,1.52-3.392h5.346v2.478a16.132,16.132,0,0,1-.3,3.3,3.723,3.723,0,0,1-2.963,2.478,19.388,19.388,0,0,1-3.471.436c-.672.021-1.11,0-1.11,0v3.538a35.181,35.181,0,0,0,5.319-.207,6.723,6.723,0,0,0,5.512-3.285,10.174,10.174,0,0,0,1.14-5.866V396.15h-2.635V392.5Z" transform="translate(-200.382 -355.879)" fill="#595757"/>
      <rect id="長方形_265" data-name="長方形 265" width="1.67" height="3.783" transform="translate(278.298 35.594)" fill="#595757"/>
      <rect id="長方形_266" data-name="長方形 266" width="1.672" height="3.783" transform="translate(275.698 35.595)" fill="#595757"/>
      <rect id="長方形_267" data-name="長方形 267" width="1.672" height="3.783" transform="translate(230.106 35.594)" fill="#595757"/>
      <rect id="長方形_268" data-name="長方形 268" width="1.671" height="3.783" transform="translate(227.507 35.594)" fill="#595757"/>
      <path id="パス_775" data-name="パス 775" d="M350.692,392.558h3.919v7.026a12.934,12.934,0,0,1-.544,5.091,5.735,5.735,0,0,1-3.465,3.3,6.666,6.666,0,0,1-1.833.359v-3.419a2.674,2.674,0,0,0,1.662-1.615,17.877,17.877,0,0,0,.26-4.422Z" transform="translate(-155.428 -355.9)" fill="#595757"/>
      <path id="パス_776" data-name="パス 776" d="M365.76,403.651V392.558h-3.966v15.821a11.418,11.418,0,0,0,6.766-1.824,6.636,6.636,0,0,0,2.805-4.719,22.616,22.616,0,0,0,.415-3.077h-3.822a10.953,10.953,0,0,1-.853,3.707c-.78,1.368-1.345,1.183-1.345,1.183" transform="translate(-160.589 -355.899)" fill="#595757"/>
      <path id="パス_777" data-name="パス 777" d="M419.5,399.612a5.03,5.03,0,0,1-2.379,3.155,11.778,11.778,0,0,1-5.79,1.292v3.174a21.941,21.941,0,0,0,4.76-.276v4.76h3.815v-6.029a10.328,10.328,0,0,0,4.132-6.078Z" transform="translate(-180.218 -358.694)" fill="#595757"/>
      <rect id="長方形_269" data-name="長方形 269" width="12.168" height="3.474" transform="translate(180.001 42.704)" fill="#595757"/>
      <rect id="長方形_270" data-name="長方形 270" width="8.375" height="3.097" transform="translate(88.298 36.532)" fill="#595757"/>
      <rect id="長方形_271" data-name="長方形 271" width="8.375" height="3.095" transform="translate(88.298 40.801)" fill="#595757"/>
      <path id="パス_778" data-name="パス 778" d="M185.826,395.613h4.319l-.016,3.84s.14,4.483-1.033,6.329a7.079,7.079,0,0,1-3.975,3.18,11.969,11.969,0,0,1-2.887.526h-7.446V405.96h5.143a8.127,8.127,0,0,0,3.882-.8c1.53-.96,1.856-2.11,1.976-3.846.112-1.52.033-5.706.033-5.706" transform="translate(-86.491 -357.109)" fill="#595757"/>
      <path id="パス_779" data-name="パス 779" d="M220.745,397.9v-3.509h-4.939v-1.949h-4.318v1.949h-7.446V397.9h7.446c0,.095.042,2.327,0,2.784a4.4,4.4,0,0,1-4.563,4.079h-2.131v3.419s2.355.019,2.8,0a10.106,10.106,0,0,0,3.267-.483,7.127,7.127,0,0,0,4.55-4.542,13.2,13.2,0,0,0,.388-3.638V397.9Z" transform="translate(-98.082 -355.854)" fill="#595757"/>
      <path id="パス_780" data-name="パス 780" d="M249.5,402.337c-.421-.116-1.1-.251-1.48-.329a10.376,10.376,0,0,0,2.051-3.636,19.494,19.494,0,0,0,.71-3.989h-6.05V392.27H240.5v2.114h-5.721v3.532h10.985a4.363,4.363,0,0,1-.322.936,5.481,5.481,0,0,1-2.459,2.471,11.953,11.953,0,0,1-5.129,1.166c-2.659.152-3.472.128-3.472.128V406a44.9,44.9,0,0,0,6.12-.353v3.164h4.225v-4.136c.412.049,1.242.16,2.106.331a14.725,14.725,0,0,1,4.563,1.627l.033-3.5a7.655,7.655,0,0,0-1.934-.787" transform="translate(-110.105 -355.785)" fill="#595757"/>
      <path id="パス_781" data-name="パス 781" d="M299.425,404.647h-3.914a19,19,0,0,1-.164,3.571,2.419,2.419,0,0,1-1.46,1.7v3.427a7.471,7.471,0,0,0,2.127-.385,4.366,4.366,0,0,0,3.064-3.374,33.383,33.383,0,0,0,.343-4.944" transform="translate(-133.682 -360.689)" fill="#595757"/>
      <path id="パス_782" data-name="パス 782" d="M314.93,404.647h3.912a19.346,19.346,0,0,0,.163,3.571,2.431,2.431,0,0,0,1.463,1.7v3.427a7.5,7.5,0,0,1-2.135-.385,4.36,4.36,0,0,1-3.06-3.374,33.317,33.317,0,0,1-.343-4.944" transform="translate(-142.02 -360.689)" fill="#595757"/>
      <path id="パス_783" data-name="パス 783" d="M305.566,394.257v-2.306H301.3v2.306h-6.369v3.529s3.287-.033,6.369,0v10.893h4.267V397.787c2.853.011,6.355,0,6.355,0v-3.529Z" transform="translate(-134.094 -355.659)" fill="#595757"/>
      <path id="パス_784" data-name="パス 784" d="M511.1,403.877a30.859,30.859,0,0,0-3.841-2.219c2-3.683,1.9-9.188,1.9-9.188H494.773v3.538h9.68c-.087.388-.122,7.568-6.61,8.586a21.014,21.014,0,0,1-3.47.333v3.38a32.392,32.392,0,0,0,5.721-.456,10.105,10.105,0,0,0,5.148-2.83,39.339,39.339,0,0,1,5.858,3.419Z" transform="translate(-213.122 -355.865)" fill="#595757"/>
      <rect id="長方形_272" data-name="長方形 272" width="8.116" height="3.516" transform="translate(143.597 36.579)" fill="#595757"/>
      <path id="パス_785" data-name="パス 785" d="M277.044,395.828h4.309v5.731a9.36,9.36,0,0,1-1.438,5,8.109,8.109,0,0,1-6.745,3.123h-6.784l-.082-3.408,5.214-.058s2.468.076,3.677-.864a4.262,4.262,0,0,0,1.849-3.59c.03-1.051,0-5.933,0-5.933" transform="translate(-122.752 -357.195)" fill="#595757"/>
      <path id="パス_786" data-name="パス 786" d="M398.47,404.076v-3.512h-16.7v3.512h7.852c0,3.332-1.948,4.06-4.06,4.06h-2.537v3.419h3.21c6.822,0,7.306-5.5,7.306-7.48Z" transform="translate(-168.502 -359.072)" fill="#595757"/>
      <rect id="長方形_273" data-name="長方形 273" width="11.894" height="3.401" transform="translate(214.517 36.588)" fill="#595757"/>
      <rect id="長方形_274" data-name="長方形 274" width="8.113" height="3.516" transform="translate(244.816 36.579)" fill="#595757"/>
      <path id="パス_787" data-name="パス 787" d="M444.681,395.828H449v5.731a9.357,9.357,0,0,1-1.444,5,8.114,8.114,0,0,1-6.746,3.123h-6.782l-.084-3.408,5.217-.058s2.463.076,3.675-.864a4.238,4.238,0,0,0,1.846-3.59c.033-1.051,0-5.933,0-5.933" transform="translate(-189.176 -357.195)" fill="#595757"/>
    </g>
  </g>
</svg>
