<svg xmlns="http://www.w3.org/2000/svg" xmlns:xlink="http://www.w3.org/1999/xlink" width="87" height="87" viewBox="0 0 87 87">
  <defs>
    <clipPath id="clip-path">
      <rect id="長方形_444" data-name="長方形 444" width="87" height="87" transform="translate(-0.213 -0.46)" fill="#1a1a1a" stroke="#707070" stroke-width="1"/>
    </clipPath>
  </defs>
  <g id="マスクグループ_40" data-name="マスクグループ 40" transform="translate(0.213 0.46)" clip-path="url(#clip-path)">
    <g id="employees" transform="translate(0.263 5.539)">
      <g id="グループ_1043" data-name="グループ 1043" transform="translate(47.332 55.825)">
        <g id="グループ_1042" data-name="グループ 1042">
          <path id="パス_853" data-name="パス 853" d="M50.238,57.22H45.485a1.27,1.27,0,1,0,0,2.54h4.753a1.27,1.27,0,1,0,0-2.54Z" transform="translate(-44.215 -57.22)" fill="#1a1a1a"/>
        </g>
      </g>
      <g id="グループ_1045" data-name="グループ 1045" transform="translate(37.382 0)">
        <g id="グループ_1044" data-name="グループ 1044">
          <path id="パス_854" data-name="パス 854" d="M78.872,47.3l-6.917-2.668L68.429,41.1a1.264,1.264,0,0,0-.816-.368V37.93a13.1,13.1,0,0,0,3.323-6.545,3.634,3.634,0,0,0,.891-.071,3.759,3.759,0,0,0,2.917-3.728V26.66a3.807,3.807,0,0,0-1.119-2.7c1.122-6.1.2-11.072-2.684-14.4C68.153,6.341,63.663,4.8,57.955,5.112a17.013,17.013,0,0,0-9.756,3.6,6.692,6.692,0,0,0-2.614.888c-1.411.846-3.092,2.625-3.092,6.288a31.718,31.718,0,0,0,.881,7.378A3.765,3.765,0,0,0,41.3,26.675v.912a3.759,3.759,0,0,0,2.917,3.728,3.626,3.626,0,0,0,.891.071,13.1,13.1,0,0,0,3.323,6.545v2.806a1.264,1.264,0,0,0-.816.368l-3.527,3.527L37.175,47.3a8.411,8.411,0,0,0-1.7.889,1.27,1.27,0,1,0,1.428,2.1,5.877,5.877,0,0,1,1.185-.62l6.419-2.476,4.908,7.362a3.634,3.634,0,0,0,2.675,1.606c.121.012.243.018.363.018a3.625,3.625,0,0,0,1.788-.473L53.19,79.6A1.27,1.27,0,0,0,54.4,80.922h.057a1.27,1.27,0,0,0,1.268-1.214l.978-22.176h2.637l.978,22.176a1.27,1.27,0,0,0,1.268,1.214h.057A1.27,1.27,0,0,0,62.858,79.6L61.8,55.706a3.625,3.625,0,0,0,1.788.473c.121,0,.242-.006.363-.018a3.634,3.634,0,0,0,2.675-1.606l4.908-7.362,6.419,2.476a5.846,5.846,0,0,1,2.285,1.592l-4.392,4.392a8.345,8.345,0,0,0-2.46,5.94v18.06a1.27,1.27,0,1,0,2.54,0V61.593a5.822,5.822,0,0,1,1.716-4.144L81.5,53.595a5.854,5.854,0,0,1,.2,1.775L80.72,79.6a1.27,1.27,0,0,0,1.218,1.321h.053A1.27,1.27,0,0,0,83.258,79.7l.984-24.232A8.4,8.4,0,0,0,78.872,47.3ZM47.6,30.862a2.473,2.473,0,0,0-2.572-2.016,1.089,1.089,0,0,1-.3-.02,1.232,1.232,0,0,1-.886-1.239v-.912a1.2,1.2,0,0,1,.9-1.208,1.1,1.1,0,0,1,1.087.416,1.772,1.772,0,0,0,2.434.382,9.222,9.222,0,0,0,2.083-2.036,1.27,1.27,0,0,0-2.039-1.516,6.743,6.743,0,0,1-.989,1.069,3.634,3.634,0,0,0-1.377-.736,29.213,29.213,0,0,1-.907-7.159c0-1.945.6-3.312,1.782-4.063a4.123,4.123,0,0,1,1.9-.609,1.282,1.282,0,0,0,.876-.351,14.308,14.308,0,0,1,8.5-3.216c4.895-.264,8.674.971,10.928,3.574,2.272,2.623,3.028,6.651,2.208,11.692a5.505,5.505,0,0,0-1.083.076l-1.193-2.866a1.271,1.271,0,0,0-1.494-.741c-.118.031-11.848,3-16.766-3.119a1.27,1.27,0,1,0-1.98,1.591c5.023,6.253,14.988,4.893,18.306,4.229l.923,2.216a2.088,2.088,0,0,0,2.413,1.237,2.742,2.742,0,0,1,.95-.07,1.2,1.2,0,0,1,.9,1.192v.926a1.232,1.232,0,0,1-.886,1.239,1.077,1.077,0,0,1-.3.02,2.474,2.474,0,0,0-2.572,2.016,10.6,10.6,0,0,1-20.849,0Zm5.635,22.453a1.107,1.107,0,0,1-1.7-.169l-4.944-7.417,1.988-1.988,7.591,6.642Zm3.583,1.678.077-1.746,1.129-1.129,1.129,1.129.077,1.746Zm1.207-6.359-7.048-6.167V40.035a13.146,13.146,0,0,0,14.1,0v2.431Zm6.493,4.513a1.107,1.107,0,0,1-1.7.169l-2.932-2.932,7.591-6.642,1.988,1.988Z" transform="translate(-34.92 -5.073)" fill="#1a1a1a"/>
        </g>
      </g>
      <g id="グループ_1047" data-name="グループ 1047" transform="translate(0 0)">
        <g id="グループ_1046" data-name="グループ 1046">
          <path id="パス_855" data-name="パス 855" d="M40.281,53.956l-6.2-2.707-3.39-3.39a1.263,1.263,0,0,0-.816-.368v-2a13.119,13.119,0,0,0,5.7-8.541,3.649,3.649,0,0,0,1-.1,3.781,3.781,0,0,0,2.8-3.7v-.926A3.787,3.787,0,0,0,37.751,29.1a14.363,14.363,0,0,0,.439-3.519,14.81,14.81,0,0,0-7.132-12.559,8.235,8.235,0,0,0-8.4-7.952,8.235,8.235,0,0,0-8.4,7.952A14.81,14.81,0,0,0,7.13,25.583a14.363,14.363,0,0,0,.437,3.509,3.8,3.8,0,0,0-1.625,3.148v.912a3.781,3.781,0,0,0,2.8,3.7,3.642,3.642,0,0,0,1,.1,13.119,13.119,0,0,0,5.7,8.541v2a1.263,1.263,0,0,0-.816.368l-3.39,3.39-6.2,2.707A8.453,8.453,0,0,0,.007,62.01l.75,17.7a1.27,1.27,0,0,0,1.268,1.216H2.08A1.27,1.27,0,0,0,3.3,79.6l-.75-17.7a5.849,5.849,0,0,1,.805-3.2l3.334,4a7.061,7.061,0,0,1,1.634,4.512V79.653a1.27,1.27,0,1,0,2.54,0V67.216a9.607,9.607,0,0,0-2.222-6.138L5.092,56.825a5.759,5.759,0,0,1,.964-.541l5.405-2.36,3.82,6.2a2.458,2.458,0,0,0,3.689.581l2.42-2.065V79.653a1.27,1.27,0,1,0,2.54,0V58.64l2.42,2.065a2.459,2.459,0,0,0,3.689-.581l3.82-6.2,5.405,2.36a5.765,5.765,0,0,1,.964.541l-3.544,4.253a9.607,9.607,0,0,0-2.222,6.138V79.653a1.27,1.27,0,1,0,2.54,0V67.216A7.062,7.062,0,0,1,38.636,62.7l3.334-4a5.849,5.849,0,0,1,.805,3.2l-.75,17.7a1.27,1.27,0,0,0,1.215,1.323H43.3a1.27,1.27,0,0,0,1.268-1.216l.75-17.7A8.454,8.454,0,0,0,40.281,53.956ZM22.66,7.613a5.82,5.82,0,0,1,5.656,4.06,16.108,16.108,0,0,0-11.313,0A5.819,5.819,0,0,1,22.66,7.613ZM12.236,36.427a2.474,2.474,0,0,0-2.572-2.016,1.1,1.1,0,0,1-.332-.028,1.241,1.241,0,0,1-.85-1.231v-.912a1.2,1.2,0,0,1,.9-1.208,1.1,1.1,0,0,1,1.087.416,1.771,1.771,0,0,0,2.435.382,9.214,9.214,0,0,0,2.056-2A1.27,1.27,0,0,0,12.924,28.3a6.734,6.734,0,0,1-.969,1.042,3.639,3.639,0,0,0-1.917-.844,11.83,11.83,0,0,1-.368-2.919c0-6.835,5.827-12.4,12.99-12.4s12.99,5.561,12.99,12.4a11.825,11.825,0,0,1-.366,2.914,5.826,5.826,0,0,0-.989.163l-.955-.785a2.439,2.439,0,0,0-1.695-.556c-1.867.11-11.429.363-16.334-5.508a1.27,1.27,0,1,0-1.949,1.629c2.419,2.9,5.968,4.853,10.547,5.82a31.089,31.089,0,0,0,7.844.6l1.49,1.225a1.268,1.268,0,0,0,1.444.118,2.8,2.8,0,0,1,1.252-.167,1.2,1.2,0,0,1,.9,1.192v.926a1.24,1.24,0,0,1-.85,1.231,1.086,1.086,0,0,1-.332.028,2.476,2.476,0,0,0-2.572,2.016,10.6,10.6,0,0,1-20.85,0Zm5.158,22.284-3.82-6.2,1.957-1.957,5.26,5.26ZM22.66,54.09l-4.672-4.672V46.79a13.132,13.132,0,0,0,9.343,0v2.628Zm5.267,4.621-3.4-2.9,5.26-5.26,1.957,1.957Z" transform="translate(0 -5.072)" fill="#1a1a1a"/>
        </g>
      </g>
      <g id="グループ_1049" data-name="グループ 1049" transform="translate(13.072 61.427)">
        <g id="グループ_1048" data-name="グループ 1048">
          <path id="パス_856" data-name="パス 856" d="M17.046,62.453H13.481a1.27,1.27,0,1,0,0,2.54h3.565a1.27,1.27,0,0,0,0-2.54Z" transform="translate(-12.211 -62.453)" fill="#1a1a1a"/>
        </g>
      </g>
    </g>
  </g>
</svg>
