<svg xmlns="http://www.w3.org/2000/svg" xmlns:xlink="http://www.w3.org/1999/xlink" width="87" height="87" viewBox="0 0 87 87">
  <defs>
    <clipPath id="clip-path">
      <rect id="長方形_445" data-name="長方形 445" width="87" height="87" fill="#1a1a1a" stroke="#707070" stroke-width="1"/>
    </clipPath>
  </defs>
  <g id="マスクグループ_41" data-name="マスクグループ 41" clip-path="url(#clip-path)">
    <g id="document" transform="translate(7.218)">
      <g id="グループ_1059" data-name="グループ 1059" transform="translate(17.323 62.073)">
        <g id="グループ_1058" data-name="グループ 1058">
          <path id="パス_861" data-name="パス 861" d="M35.214,78.117H32.327a1.444,1.444,0,1,0,0,2.887h2.887a1.444,1.444,0,0,0,0-2.887Z" transform="translate(-30.883 -78.117)" fill="#1a1a1a"/>
        </g>
      </g>
      <g id="グループ_1061" data-name="グループ 1061" transform="translate(25.984 62.073)">
        <g id="グループ_1060" data-name="グループ 1060">
          <path id="パス_862" data-name="パス 862" d="M77.873,78.117H43.227a1.444,1.444,0,1,0,0,2.887H77.873a1.444,1.444,0,0,0,0-2.887Z" transform="translate(-41.783 -78.117)" fill="#1a1a1a"/>
        </g>
      </g>
      <g id="グループ_1063" data-name="グループ 1063" transform="translate(17.323 53.412)">
        <g id="グループ_1062" data-name="グループ 1062">
          <path id="パス_863" data-name="パス 863" d="M35.214,67.217H32.327a1.444,1.444,0,1,0,0,2.887h2.887a1.444,1.444,0,0,0,0-2.887Z" transform="translate(-30.883 -67.217)" fill="#1a1a1a"/>
        </g>
      </g>
      <g id="グループ_1065" data-name="グループ 1065" transform="translate(25.984 53.412)">
        <g id="グループ_1064" data-name="グループ 1064">
          <path id="パス_864" data-name="パス 864" d="M77.873,67.217H43.227a1.444,1.444,0,1,0,0,2.887H77.873a1.444,1.444,0,0,0,0-2.887Z" transform="translate(-41.783 -67.217)" fill="#1a1a1a"/>
        </g>
      </g>
      <g id="グループ_1067" data-name="グループ 1067" transform="translate(17.323 44.751)">
        <g id="グループ_1066" data-name="グループ 1066">
          <path id="パス_865" data-name="パス 865" d="M35.214,56.317H32.327a1.444,1.444,0,1,0,0,2.887h2.887a1.444,1.444,0,0,0,0-2.887Z" transform="translate(-30.883 -56.317)" fill="#1a1a1a"/>
        </g>
      </g>
      <g id="グループ_1069" data-name="グループ 1069" transform="translate(25.984 44.751)">
        <g id="グループ_1068" data-name="グループ 1068">
          <path id="パス_866" data-name="パス 866" d="M77.873,56.317H43.227a1.444,1.444,0,1,0,0,2.887H77.873a1.444,1.444,0,0,0,0-2.887Z" transform="translate(-41.783 -56.317)" fill="#1a1a1a"/>
        </g>
      </g>
      <g id="グループ_1071" data-name="グループ 1071" transform="translate(17.323 36.089)">
        <g id="グループ_1070" data-name="グループ 1070">
          <path id="パス_867" data-name="パス 867" d="M35.214,45.417H32.327a1.444,1.444,0,1,0,0,2.887h2.887a1.444,1.444,0,0,0,0-2.887Z" transform="translate(-30.883 -45.417)" fill="#1a1a1a"/>
        </g>
      </g>
      <g id="グループ_1073" data-name="グループ 1073" transform="translate(25.984 36.089)">
        <g id="グループ_1072" data-name="グループ 1072">
          <path id="パス_868" data-name="パス 868" d="M77.873,45.417H43.227a1.444,1.444,0,1,0,0,2.887H77.873a1.444,1.444,0,0,0,0-2.887Z" transform="translate(-41.783 -45.417)" fill="#1a1a1a"/>
        </g>
      </g>
      <g id="グループ_1075" data-name="グループ 1075" transform="translate(17.323 27.428)">
        <g id="グループ_1074" data-name="グループ 1074">
          <path id="パス_869" data-name="パス 869" d="M35.214,34.517H32.327a1.444,1.444,0,0,0,0,2.887h2.887a1.444,1.444,0,0,0,0-2.887Z" transform="translate(-30.883 -34.517)" fill="#1a1a1a"/>
        </g>
      </g>
      <g id="グループ_1077" data-name="グループ 1077" transform="translate(25.984 27.428)">
        <g id="グループ_1076" data-name="グループ 1076">
          <path id="パス_870" data-name="パス 870" d="M77.873,34.517H43.227a1.444,1.444,0,1,0,0,2.887H77.873a1.444,1.444,0,0,0,0-2.887Z" transform="translate(-41.783 -34.517)" fill="#1a1a1a"/>
        </g>
      </g>
      <g id="グループ_1079" data-name="グループ 1079" transform="translate(0)">
        <g id="グループ_1078" data-name="グループ 1078">
          <path id="パス_871" data-name="パス 871" d="M81.243,21.563a1.364,1.364,0,0,0-.074-.371c-.016-.046-.027-.091-.048-.136a1.443,1.443,0,0,0-.289-.423L60.623.423A1.443,1.443,0,0,0,60.2.134c-.045-.02-.09-.032-.134-.048a1.438,1.438,0,0,0-.374-.075C59.667.016,59.64,0,59.608,0H19.188a1.444,1.444,0,0,0-1.444,1.444V5.774H10.527A1.444,1.444,0,0,0,9.083,7.218V85.171a1.444,1.444,0,0,0,1.444,1.444h60.63A1.444,1.444,0,0,0,72.6,85.171V77.953h7.218a1.444,1.444,0,0,0,1.444-1.444V21.654C81.262,21.622,81.246,21.594,81.243,21.563ZM61.052,4.928,76.333,20.21H61.052Zm8.661,78.8H11.97V8.661h5.774V76.509a1.444,1.444,0,0,0,1.444,1.444H69.713Zm8.661-8.661H20.632V2.887H58.165V21.654A1.444,1.444,0,0,0,59.608,23.1H78.375Z" transform="translate(-9.083)" fill="#1a1a1a"/>
        </g>
      </g>
      <g id="グループ_1081" data-name="グループ 1081" transform="translate(17.323 12.992)">
        <g id="グループ_1080" data-name="グループ 1080">
          <path id="パス_872" data-name="パス 872" d="M40.988,16.35H32.327a1.444,1.444,0,0,0-1.444,1.444v8.661A1.444,1.444,0,0,0,32.327,27.9h8.661a1.444,1.444,0,0,0,1.444-1.444V17.794A1.444,1.444,0,0,0,40.988,16.35Zm-1.444,8.661H33.77V19.237h5.774Z" transform="translate(-30.883 -16.35)" fill="#1a1a1a"/>
        </g>
      </g>
    </g>
  </g>
</svg>
