<svg xmlns="http://www.w3.org/2000/svg" xmlns:xlink="http://www.w3.org/1999/xlink" width="87" height="87" viewBox="0 0 87 87">
  <defs>
    <clipPath id="clip-path">
      <rect id="長方形_443" data-name="長方形 443" width="87" height="87" transform="translate(-0.213 -0.222)" fill="#1a1a1a" stroke="#707070" stroke-width="1"/>
    </clipPath>
  </defs>
  <g id="マスクグループ_39" data-name="マスクグループ 39" transform="translate(0.213 0.222)" clip-path="url(#clip-path)">
    <path id="suitcase" d="M82.376,13.007H63.588V7.226A7.234,7.234,0,0,0,56.362,0H30.349a7.234,7.234,0,0,0-7.226,7.226v5.781H4.336A4.336,4.336,0,0,0,0,17.342v32.17a4.354,4.354,0,0,0,2.89,4.08V73.7A4.336,4.336,0,0,0,7.226,78.04h72.26A4.336,4.336,0,0,0,83.821,73.7V53.593a4.356,4.356,0,0,0,2.89-4.082V17.342a4.336,4.336,0,0,0-4.336-4.336ZM26.013,7.226A4.336,4.336,0,0,1,30.349,2.89H56.362A4.336,4.336,0,0,1,60.7,7.226v5.781h-2.89V7.226a1.445,1.445,0,0,0-1.445-1.445H30.349A1.445,1.445,0,0,0,28.9,7.226v5.781h-2.89Zm28.9,5.781H31.794V8.671H54.917ZM80.931,73.7a1.445,1.445,0,0,1-1.445,1.445H7.226A1.445,1.445,0,0,1,5.781,73.7V54.089l31.794,4.385v3.669a4.336,4.336,0,0,0,4.336,4.336H44.8a4.336,4.336,0,0,0,4.336-4.336V58.474l31.794-4.385ZM46.246,62.143A1.445,1.445,0,0,1,44.8,63.588h-2.89a1.445,1.445,0,0,1-1.445-1.445V53.472a1.445,1.445,0,0,1,1.445-1.445H44.8a1.445,1.445,0,0,1,1.445,1.445ZM83.821,49.512a1.445,1.445,0,0,1-1.243,1.432l-.4.055L49.137,55.556V53.472A4.336,4.336,0,0,0,44.8,49.136h-2.89a4.336,4.336,0,0,0-4.336,4.336v2.084L4.135,50.944A1.445,1.445,0,0,1,2.89,49.512V17.342A1.445,1.445,0,0,1,4.336,15.9h78.04a1.445,1.445,0,0,1,1.445,1.445Zm0,0" transform="translate(-0.36 4.444)" fill="#1a1a1a"/>
  </g>
</svg>
