<svg xmlns="http://www.w3.org/2000/svg" xmlns:xlink="http://www.w3.org/1999/xlink" width="87" height="87" viewBox="0 0 87 87">
  <defs>
    <clipPath id="clip-path">
      <rect id="長方形_382" data-name="長方形 382" width="87" height="87" transform="translate(-0.213 -0.341)" fill="#1a1a1a" stroke="#707070" stroke-width="1"/>
    </clipPath>
  </defs>
  <g id="マスクグループ_31" data-name="マスクグループ 31" transform="translate(0.213 0.341)" clip-path="url(#clip-path)">
    <g id="interview" transform="translate(0 0)">
      <path id="_x35_" d="M48.9,0H79.987a4.264,4.264,0,0,1,4.085,4.373V23.955a4.264,4.264,0,0,1-4.085,4.373H48.9a4.253,4.253,0,0,1-4.086-4.373V20.407L38.2,17.031a2.912,2.912,0,0,1,0-5.121c2.206-1.131,4.411-2.244,6.616-3.376V4.373A4.252,4.252,0,0,1,48.9,0ZM79.987,2.7H48.9a1.56,1.56,0,0,0-1.381,1.669V9.36a1.321,1.321,0,0,1-.748,1.189c-2.456,1.266-4.891,2.532-7.346,3.779a.162.162,0,0,0,0,.288l7.232,3.721a1.337,1.337,0,0,1,.863,1.246v4.373A1.56,1.56,0,0,0,48.9,25.623H79.987a1.56,1.56,0,0,0,1.381-1.669V4.373A1.561,1.561,0,0,0,79.987,2.7Z" transform="translate(2.542)" fill="#1a1a1a"/>
      <path id="_x34_" d="M53.519,9.089a1.352,1.352,0,0,1,0-2.7H73.81a1.352,1.352,0,0,1,0,2.7Zm0,11.987a1.352,1.352,0,0,1,0-2.7H65.564a1.352,1.352,0,0,1,0,2.7Zm0-6a1.352,1.352,0,0,1,0-2.7H73.81a1.353,1.353,0,0,1,0,2.7Z" transform="translate(3.617 0.443)" fill="#1a1a1a"/>
      <path id="_x33_" d="M17.415,25.6a7.04,7.04,0,0,1-1.074-.518l-.212,1.554,4.45,5.005,4.43-5.005L24.8,25.086a7.646,7.646,0,0,1-1.055.518,9.669,9.669,0,0,1-6.328,0Zm-3.529-2.493L13.752,23a9.311,9.311,0,0,1-3.088-7.135V9.647C10.664,3.778,14.807,0,20.579,0s9.9,3.778,9.9,9.647v6.215A9.313,9.313,0,0,1,27.388,23l-.135.115.441,3.26L30.016,28.4l6.579,2.858A7.575,7.575,0,0,1,39.932,34.1a7.926,7.926,0,0,1,1.209,4.258V42.1A1.351,1.351,0,0,1,39.8,43.46,1.368,1.368,0,0,1,38.435,42.1v-3.74a5.035,5.035,0,0,0-.786-2.8,4.825,4.825,0,0,0-2.129-1.822L30.131,31.4l-2.263,7.077a1.351,1.351,0,0,1-1.688.882,1.5,1.5,0,0,1-.384-.211l-3.875-2.82V42.1A1.351,1.351,0,0,1,20.58,43.46,1.369,1.369,0,0,1,19.217,42.1V36.326l-3.855,2.839-.4.191a1.359,1.359,0,0,1-1.688-.882L11.028,31.4,5.62,33.736a4.832,4.832,0,0,0-2.129,1.822,5.2,5.2,0,0,0-.786,2.8V55.33a1.351,1.351,0,0,1-1.343,1.362A1.366,1.366,0,0,1,0,55.332V38.358A7.78,7.78,0,0,1,1.227,34.1a7.42,7.42,0,0,1,3.318-2.839L11.124,28.4l2.321-2.033ZM16.13,21.5a.921.921,0,0,1,.192.191,7.159,7.159,0,0,0,2.071,1.4,7.328,7.328,0,0,0,4.354,0,7.182,7.182,0,0,0,2.071-1.4,1.034,1.034,0,0,1,.211-.191c.192-.173.384-.345.556-.518a6.638,6.638,0,0,0,2.186-5.12V12.985c-4.967.939-7.787-1.324-9.226-3.2a5.158,5.158,0,0,1-5.159,1.707v4.373a6.621,6.621,0,0,0,2.167,5.12l.574.518ZM14.6,28.96,13.406,30l1.86,5.869,3.318-2.416Zm11.949,0-3.97,4.488,3.3,2.416L27.734,30ZM7.94,46.28A1.368,1.368,0,0,1,9.3,44.918a1.35,1.35,0,0,1,1.343,1.362v9.052A1.351,1.351,0,0,1,9.3,56.694,1.367,1.367,0,0,1,7.94,55.332ZM13.426,8.726a3.068,3.068,0,0,0,3.894-2.11,1.335,1.335,0,0,1,2.531.1s1.707,4.929,7.921,3.51V9.647c0-4.373-2.915-6.943-7.192-6.943-3.855,0-6.75,2.09-7.154,6.022Z" transform="translate(0 0)" fill="#1a1a1a"/>
      <path id="_x32_" d="M53.625,56.794a10.274,10.274,0,0,1-3.682-8.133V41.642c0-6.5,4.584-10.7,11.009-10.7,6.406,0,10.989,4.2,10.989,10.7v7.019a10.263,10.263,0,0,1-3.663,8.133l.537,5.58,10.145,3.817a8.427,8.427,0,0,1,5.025,7.845v9.071a1.367,1.367,0,0,1-1.361,1.362,1.35,1.35,0,0,1-1.343-1.362V74.036a5.673,5.673,0,0,0-3.376-5.351L67.09,64.6a20.5,20.5,0,0,0-12.236-.345l-10.875,4.43a5.687,5.687,0,0,0-3.356,5.351v9.071A1.368,1.368,0,0,1,39.26,84.47a1.351,1.351,0,0,1-1.342-1.362V74.036a8.426,8.426,0,0,1,5.025-7.845l10.185-4.143Zm11.45,1.342H56.809a.683.683,0,0,0-.671.613l-.23,2.456a23.342,23.342,0,0,1,10.107.288l-.269-2.743A.657.657,0,0,0,65.075,58.136ZM56.694,55.47h8.5a2.927,2.927,0,0,0,1.65-.978,7.756,7.756,0,0,0,2.4-5.83v-7.02c0-5.026-3.356-8-8.285-8s-8.3,2.973-8.3,8v7.019a7.777,7.777,0,0,0,2.743,6.118A2.182,2.182,0,0,0,56.694,55.47Z" transform="translate(2.628 2.144)" fill="#1a1a1a"/>
      <path id="_x31_" d="M13.568,55.914l2.243-12.85a4.456,4.456,0,0,1,4.22-3.587h22.8a3.362,3.362,0,0,1,3.357,4.047l-2.877,16.4a4.745,4.745,0,0,1-4.507,3.836H9.483a3.354,3.354,0,0,1-3.376-2.378L5.187,57.6a1.359,1.359,0,0,1,1.3-1.688h7.077Zm17.223-5.7a1.334,1.334,0,0,1,1.343,1.342,1.351,1.351,0,0,1-1.343,1.362,1.368,1.368,0,0,1-1.362-1.362A1.352,1.352,0,0,1,30.79,50.218Zm-15.19,9.7a.882.882,0,0,0,.9,1.131H38.807a2,2,0,0,0,1.842-1.592l2.877-16.4a.672.672,0,0,0-.691-.882h-22.8a1.71,1.71,0,0,0-1.554,1.343q-1.438,8.2-2.877,16.4Zm-2.512-1.3H8.217l.518,2.11a.677.677,0,0,0,.748.325h3.49a4.452,4.452,0,0,1-.039-1.592Z" transform="translate(0.357 2.736)" fill="#1a1a1a"/>
    </g>
  </g>
</svg>
