<svg xmlns="http://www.w3.org/2000/svg" xmlns:xlink="http://www.w3.org/1999/xlink" width="88" height="87" viewBox="0 0 88 87">
  <defs>
    <clipPath id="clip-path">
      <rect id="長方形_384" data-name="長方形 384" width="88" height="87" transform="translate(-0.418 -0.103)" fill="#1a1a1a" stroke="#707070" stroke-width="1"/>
    </clipPath>
  </defs>
  <g id="マスクグループ_33" data-name="マスクグループ 33" transform="translate(0.418 0.103)" clip-path="url(#clip-path)">
    <g id="customer-service" transform="translate(0.755 -0.141)">
      <path id="パス_823" data-name="パス 823" d="M76.371,31.427h-19V11.593A10.75,10.75,0,0,0,46.635.854H11.981A10.75,10.75,0,0,0,1.243,11.593v23.1A10.75,10.75,0,0,0,11.981,45.433h.812v6.588a4.952,4.952,0,0,0,4.95,4.971,4.867,4.867,0,0,0,3.5-1.476l9.739-9.687V65.266A10.756,10.756,0,0,0,41.73,76H56.977L67.092,86.065A4.938,4.938,0,0,0,75.57,82.6V76h.8A10.755,10.755,0,0,0,87.122,65.265v-23.1A10.756,10.756,0,0,0,76.371,31.427Zm-45.85,9.856a2.075,2.075,0,0,0-1.464.6L18.287,52.6a.734.734,0,0,1-.844.183.772.772,0,0,1-.5-.761V43.358a2.074,2.074,0,0,0-2.075-2.075H11.981a6.6,6.6,0,0,1-6.588-6.588v-23.1A6.6,6.6,0,0,1,11.981,5H46.634a6.6,6.6,0,0,1,6.588,6.587v23.1a6.6,6.6,0,0,1-6.589,6.588H30.521Zm52.45,23.983a6.6,6.6,0,0,1-6.6,6.587H73.495a2.076,2.076,0,0,0-2.075,2.075V82.6a.768.768,0,0,1-.5.754.76.76,0,0,1-.877-.2L59.3,72.458a2.078,2.078,0,0,0-1.464-.6H41.73a6.6,6.6,0,0,1-6.6-6.587V45.433h11.5a10.746,10.746,0,0,0,10.694-9.854H76.37a6.6,6.6,0,0,1,6.6,6.585v23.1Z" transform="translate(-1.243 -0.854)" fill="#1a1a1a"/>
      <g id="グループ_907" data-name="グループ 907" transform="translate(41.899 49.812)">
        <path id="パス_824" data-name="パス 824" d="M43.444,47.385a3.062,3.062,0,1,0,3.064,3.062A3.066,3.066,0,0,0,43.444,47.385Z" transform="translate(-40.382 -47.385)" fill="#1a1a1a"/>
        <path id="パス_825" data-name="パス 825" d="M55.444,47.385a3.062,3.062,0,1,0,3.064,3.062A3.066,3.066,0,0,0,55.444,47.385Z" transform="translate(-39.536 -47.385)" fill="#1a1a1a"/>
        <path id="パス_826" data-name="パス 826" d="M67.445,47.385a3.062,3.062,0,1,0,3.064,3.062A3.066,3.066,0,0,0,67.445,47.385Z" transform="translate(-38.69 -47.385)" fill="#1a1a1a"/>
      </g>
      <g id="グループ_908" data-name="グループ 908" transform="translate(21.358 10.9)">
        <path id="パス_827" data-name="パス 827" d="M26.962,28.207a2.2,2.2,0,0,0,0,4.4,2.2,2.2,0,0,0,0-4.4Z" transform="translate(-20.94 -9.826)" fill="#1a1a1a"/>
        <path id="パス_828" data-name="パス 828" d="M27.639,11.036c-4.416,0-6.445,2.617-6.445,4.384a1.876,1.876,0,0,0,1.963,1.865c1.767,0,1.047-2.519,4.384-2.519,1.635,0,2.944.719,2.944,2.225,0,1.767-1.832,2.781-2.911,3.7a5.989,5.989,0,0,0-2.193,4.973c0,1.7.458,2.191,1.8,2.191,1.6,0,1.93-.719,1.93-1.342,0-1.7.033-2.682,1.832-4.089.883-.688,3.663-2.912,3.663-5.988s-2.779-5.4-6.967-5.4Z" transform="translate(-21.194 -11.036)" fill="#1a1a1a"/>
      </g>
    </g>
  </g>
</svg>
