<svg xmlns="http://www.w3.org/2000/svg" xmlns:xlink="http://www.w3.org/1999/xlink" width="72" height="72" viewBox="0 0 72 72">
  <defs>
    <clipPath id="clip-path">
      <rect id="長方形_445" data-name="長方形 445" width="72" height="72" transform="translate(374 933)" fill="#e6002d" stroke="#707070" stroke-width="1"/>
    </clipPath>
  </defs>
  <g id="マスクグループ_41" data-name="マスクグループ 41" transform="translate(-374 -933)" clip-path="url(#clip-path)">
    <g id="document" transform="translate(380 933)">
      <g id="グループ_1059" data-name="グループ 1059" transform="translate(14.4 51.6)">
        <g id="グループ_1058" data-name="グループ 1058">
          <path id="パス_861" data-name="パス 861" d="M34.483,78.117h-2.4a1.2,1.2,0,1,0,0,2.4h2.4a1.2,1.2,0,0,0,0-2.4Z" transform="translate(-30.883 -78.117)" fill="#e6002d"/>
        </g>
      </g>
      <g id="グループ_1061" data-name="グループ 1061" transform="translate(21.6 51.6)">
        <g id="グループ_1060" data-name="グループ 1060">
          <path id="パス_862" data-name="パス 862" d="M71.783,78.117h-28.8a1.2,1.2,0,1,0,0,2.4h28.8a1.2,1.2,0,0,0,0-2.4Z" transform="translate(-41.783 -78.117)" fill="#e6002d"/>
        </g>
      </g>
      <g id="グループ_1063" data-name="グループ 1063" transform="translate(14.4 44.4)">
        <g id="グループ_1062" data-name="グループ 1062">
          <path id="パス_863" data-name="パス 863" d="M34.483,67.217h-2.4a1.2,1.2,0,1,0,0,2.4h2.4a1.2,1.2,0,0,0,0-2.4Z" transform="translate(-30.883 -67.217)" fill="#e6002d"/>
        </g>
      </g>
      <g id="グループ_1065" data-name="グループ 1065" transform="translate(21.6 44.4)">
        <g id="グループ_1064" data-name="グループ 1064">
          <path id="パス_864" data-name="パス 864" d="M71.783,67.217h-28.8a1.2,1.2,0,1,0,0,2.4h28.8a1.2,1.2,0,0,0,0-2.4Z" transform="translate(-41.783 -67.217)" fill="#e6002d"/>
        </g>
      </g>
      <g id="グループ_1067" data-name="グループ 1067" transform="translate(14.4 37.2)">
        <g id="グループ_1066" data-name="グループ 1066">
          <path id="パス_865" data-name="パス 865" d="M34.483,56.317h-2.4a1.2,1.2,0,1,0,0,2.4h2.4a1.2,1.2,0,0,0,0-2.4Z" transform="translate(-30.883 -56.317)" fill="#e6002d"/>
        </g>
      </g>
      <g id="グループ_1069" data-name="グループ 1069" transform="translate(21.6 37.2)">
        <g id="グループ_1068" data-name="グループ 1068">
          <path id="パス_866" data-name="パス 866" d="M71.783,56.317h-28.8a1.2,1.2,0,1,0,0,2.4h28.8a1.2,1.2,0,0,0,0-2.4Z" transform="translate(-41.783 -56.317)" fill="#e6002d"/>
        </g>
      </g>
      <g id="グループ_1071" data-name="グループ 1071" transform="translate(14.4 30)">
        <g id="グループ_1070" data-name="グループ 1070">
          <path id="パス_867" data-name="パス 867" d="M34.483,45.417h-2.4a1.2,1.2,0,0,0,0,2.4h2.4a1.2,1.2,0,0,0,0-2.4Z" transform="translate(-30.883 -45.417)" fill="#e6002d"/>
        </g>
      </g>
      <g id="グループ_1073" data-name="グループ 1073" transform="translate(21.6 30)">
        <g id="グループ_1072" data-name="グループ 1072">
          <path id="パス_868" data-name="パス 868" d="M71.783,45.417h-28.8a1.2,1.2,0,1,0,0,2.4h28.8a1.2,1.2,0,0,0,0-2.4Z" transform="translate(-41.783 -45.417)" fill="#e6002d"/>
        </g>
      </g>
      <g id="グループ_1075" data-name="グループ 1075" transform="translate(14.4 22.8)">
        <g id="グループ_1074" data-name="グループ 1074">
          <path id="パス_869" data-name="パス 869" d="M34.483,34.517h-2.4a1.2,1.2,0,1,0,0,2.4h2.4a1.2,1.2,0,0,0,0-2.4Z" transform="translate(-30.883 -34.517)" fill="#e6002d"/>
        </g>
      </g>
      <g id="グループ_1077" data-name="グループ 1077" transform="translate(21.6 22.8)">
        <g id="グループ_1076" data-name="グループ 1076">
          <path id="パス_870" data-name="パス 870" d="M71.783,34.517h-28.8a1.2,1.2,0,1,0,0,2.4h28.8a1.2,1.2,0,0,0,0-2.4Z" transform="translate(-41.783 -34.517)" fill="#e6002d"/>
        </g>
      </g>
      <g id="グループ_1079" data-name="グループ 1079" transform="translate(0)">
        <g id="グループ_1078" data-name="グループ 1078">
          <path id="パス_871" data-name="パス 871" d="M69.068,17.924a1.134,1.134,0,0,0-.061-.308c-.013-.038-.023-.076-.04-.113a1.2,1.2,0,0,0-.24-.352L51.927.352a1.2,1.2,0,0,0-.352-.24c-.037-.017-.074-.026-.112-.04A1.2,1.2,0,0,0,51.153.01c-.02,0-.043-.01-.07-.01h-33.6a1.2,1.2,0,0,0-1.2,1.2V4.8h-6A1.2,1.2,0,0,0,9.083,6V70.8a1.2,1.2,0,0,0,1.2,1.2h50.4a1.2,1.2,0,0,0,1.2-1.2v-6h6a1.2,1.2,0,0,0,1.2-1.2V18C69.083,17.974,69.07,17.951,69.068,17.924ZM52.283,4.1l12.7,12.7h-12.7Zm7.2,65.5h-48V7.2h4.8V63.6a1.2,1.2,0,0,0,1.2,1.2h42Zm7.2-7.2h-48V2.4h31.2V18a1.2,1.2,0,0,0,1.2,1.2h15.6Z" transform="translate(-9.083)" fill="#e6002d"/>
        </g>
      </g>
      <g id="グループ_1081" data-name="グループ 1081" transform="translate(14.4 10.8)">
        <g id="グループ_1080" data-name="グループ 1080">
          <path id="パス_872" data-name="パス 872" d="M39.283,16.35h-7.2a1.2,1.2,0,0,0-1.2,1.2v7.2a1.2,1.2,0,0,0,1.2,1.2h7.2a1.2,1.2,0,0,0,1.2-1.2v-7.2A1.2,1.2,0,0,0,39.283,16.35Zm-1.2,7.2h-4.8v-4.8h4.8Z" transform="translate(-30.883 -16.35)" fill="#e6002d"/>
        </g>
      </g>
    </g>
  </g>
</svg>
