<svg xmlns="http://www.w3.org/2000/svg" xmlns:xlink="http://www.w3.org/1999/xlink" width="72" height="72" viewBox="0 0 72 72">
  <defs>
    <clipPath id="clip-path">
      <rect id="長方形_449" data-name="長方形 449" width="72" height="72" transform="translate(0 -0.321)" fill="#e6002d" stroke="#707070" stroke-width="1"/>
    </clipPath>
  </defs>
  <g id="マスクグループ_45" data-name="マスクグループ 45" transform="translate(0 0.321)" clip-path="url(#clip-path)">
    <path id="suitcase" d="M68.252,10.777H52.686V5.987A5.994,5.994,0,0,0,46.7,0H25.146a5.994,5.994,0,0,0-5.987,5.987v4.79H3.592A3.592,3.592,0,0,0,0,14.369V41.023A3.608,3.608,0,0,0,2.395,44.4V61.068A3.592,3.592,0,0,0,5.987,64.66h59.87a3.592,3.592,0,0,0,3.592-3.592V44.4a3.609,3.609,0,0,0,2.395-3.382V14.369a3.592,3.592,0,0,0-3.592-3.592Zm-46.7-4.79a3.592,3.592,0,0,1,3.592-3.592H46.7a3.592,3.592,0,0,1,3.592,3.592v4.79H47.9V5.987a1.2,1.2,0,0,0-1.2-1.2H25.146a1.2,1.2,0,0,0-1.2,1.2v4.79H21.553ZM45.5,10.777H26.343V7.184H45.5ZM67.055,61.068a1.2,1.2,0,0,1-1.2,1.2H5.987a1.2,1.2,0,0,1-1.2-1.2V44.815l26.343,3.633v3.04a3.592,3.592,0,0,0,3.592,3.592H37.12a3.592,3.592,0,0,0,3.592-3.592v-3.04l26.343-3.633ZM38.317,51.488a1.2,1.2,0,0,1-1.2,1.2H34.725a1.2,1.2,0,0,1-1.2-1.2V44.3a1.2,1.2,0,0,1,1.2-1.2H37.12a1.2,1.2,0,0,1,1.2,1.2ZM69.449,41.023a1.2,1.2,0,0,1-1.03,1.187l-.332.046L40.712,46.03V44.3a3.592,3.592,0,0,0-3.592-3.592H34.725A3.592,3.592,0,0,0,31.133,44.3V46.03L3.426,42.21a1.2,1.2,0,0,1-1.031-1.187V14.369a1.2,1.2,0,0,1,1.2-1.2h64.66a1.2,1.2,0,0,1,1.2,1.2Zm0,0" transform="translate(-0.298 3.598)" fill="#e6002d"/>
  </g>
</svg>
