<svg xmlns="http://www.w3.org/2000/svg" xmlns:xlink="http://www.w3.org/1999/xlink" width="72" height="72" viewBox="0 0 72 72">
  <defs>
    <clipPath id="clip-path">
      <rect id="長方形_446" data-name="長方形 446" width="72" height="72" transform="translate(0.088 -0.46)" fill="#e6002d" stroke="#707070" stroke-width="1"/>
    </clipPath>
  </defs>
  <g id="マスクグループ_42" data-name="マスクグループ 42" transform="translate(-0.088 0.46)" clip-path="url(#clip-path)">
    <g id="employees" transform="translate(0.591 4.938)">
      <g id="グループ_1083" data-name="グループ 1083" transform="translate(39.217 46.253)">
        <g id="グループ_1082" data-name="グループ 1082">
          <path id="パス_873" data-name="パス 873" d="M49.205,57.22H45.267a1.052,1.052,0,1,0,0,2.1h3.938a1.052,1.052,0,1,0,0-2.1Z" transform="translate(-44.215 -57.22)" fill="#e6002d"/>
        </g>
      </g>
      <g id="グループ_1085" data-name="グループ 1085" transform="translate(30.973 0)">
        <g id="グループ_1084" data-name="グループ 1084">
          <path id="パス_874" data-name="パス 874" d="M71.336,40.059l-5.731-2.21-2.922-2.922a1.048,1.048,0,0,0-.676-.305V32.3a10.853,10.853,0,0,0,2.753-5.422,3.011,3.011,0,0,0,.738-.059,3.115,3.115,0,0,0,2.417-3.089v-.767a3.154,3.154,0,0,0-.927-2.238c.929-5.054.164-9.173-2.224-11.93-2.309-2.667-6.03-3.941-10.759-3.685a14.1,14.1,0,0,0-8.083,2.982,5.545,5.545,0,0,0-2.166.736c-1.169.7-2.562,2.175-2.562,5.21a26.28,26.28,0,0,0,.73,6.113,3.12,3.12,0,0,0-1.714,2.825v.755a3.115,3.115,0,0,0,2.417,3.089,3,3,0,0,0,.738.059A10.854,10.854,0,0,0,46.118,32.3v2.325a1.047,1.047,0,0,0-.676.305L42.52,37.848l-5.731,2.21a6.969,6.969,0,0,0-1.407.737,1.052,1.052,0,1,0,1.183,1.741,4.869,4.869,0,0,1,.982-.514l5.319-2.051,4.067,6.1A3.011,3.011,0,0,0,49.148,47.4c.1.01.2.015.3.015a3,3,0,0,0,1.481-.392l-.873,19.795a1.052,1.052,0,0,0,1.005,1.1h.047a1.052,1.052,0,0,0,1.051-1.006l.81-18.374h2.185l.81,18.374a1.052,1.052,0,0,0,1.051,1.006h.047a1.053,1.053,0,0,0,1.005-1.1l-.873-19.795a3,3,0,0,0,1.481.392c.1,0,.2,0,.3-.015a3.011,3.011,0,0,0,2.216-1.331l4.067-6.1,5.319,2.051a4.844,4.844,0,0,1,1.893,1.319l-3.639,3.639A6.915,6.915,0,0,0,66.794,51.9V66.866a1.052,1.052,0,1,0,2.1,0V51.9a4.824,4.824,0,0,1,1.422-3.433l3.193-3.193a4.849,4.849,0,0,1,.168,1.471l-.815,20.077a1.053,1.053,0,0,0,1.009,1.094h.043a1.052,1.052,0,0,0,1.051-1.01l.815-20.077A6.958,6.958,0,0,0,71.336,40.059ZM45.425,26.44a2.049,2.049,0,0,0-2.131-1.67.9.9,0,0,1-.245-.017,1.021,1.021,0,0,1-.734-1.027v-.756a1,1,0,0,1,.743-1,.915.915,0,0,1,.9.345,1.468,1.468,0,0,0,2.017.317A7.641,7.641,0,0,0,47.7,20.944a1.052,1.052,0,0,0-1.689-1.256,5.587,5.587,0,0,1-.819.886,3.011,3.011,0,0,0-1.141-.609,24.2,24.2,0,0,1-.752-5.932,3.687,3.687,0,0,1,1.477-3.366,3.416,3.416,0,0,1,1.573-.5,1.062,1.062,0,0,0,.726-.291,11.855,11.855,0,0,1,7.043-2.665c4.056-.219,7.186.8,9.054,2.961,1.882,2.174,2.509,5.511,1.829,9.687a4.561,4.561,0,0,0-.9.063l-.989-2.375a1.053,1.053,0,0,0-1.238-.614c-.1.026-9.817,2.489-13.892-2.584a1.052,1.052,0,1,0-1.641,1.318c4.161,5.181,12.418,4.054,15.167,3.5L62.277,21a1.73,1.73,0,0,0,2,1.025,2.272,2.272,0,0,1,.787-.058.993.993,0,0,1,.747.988v.768a1.02,1.02,0,0,1-.734,1.027.892.892,0,0,1-.245.017A2.05,2.05,0,0,0,62.7,26.44a8.782,8.782,0,0,1-17.275,0Zm4.669,18.6a.917.917,0,0,1-1.411-.14l-4.1-6.145,1.648-1.648,6.289,5.5Zm2.969,1.39.064-1.446.936-.936.936.936.064,1.446Zm1-5.269-5.84-5.11V34.04a10.892,10.892,0,0,0,11.68,0v2.014Zm5.38,3.739a.917.917,0,0,1-1.411.14L55.6,42.614l6.289-5.5,1.648,1.648Z" transform="translate(-34.92 -5.073)" fill="#e6002d"/>
        </g>
      </g>
      <g id="グループ_1087" data-name="グループ 1087" transform="translate(0 0)">
        <g id="グループ_1086" data-name="グループ 1086">
          <path id="パス_875" data-name="パス 875" d="M33.375,45.574l-5.139-2.243-2.809-2.809a1.046,1.046,0,0,0-.676-.305V38.561a10.87,10.87,0,0,0,4.722-7.077,3.024,3.024,0,0,0,.831-.079,3.132,3.132,0,0,0,2.324-3.069V27.57a3.138,3.138,0,0,0-1.349-2.588,11.9,11.9,0,0,0,.364-2.916,12.27,12.27,0,0,0-5.909-10.405,6.823,6.823,0,0,0-6.958-6.589,6.823,6.823,0,0,0-6.958,6.589A12.271,12.271,0,0,0,5.907,22.066a11.9,11.9,0,0,0,.362,2.907,3.145,3.145,0,0,0-1.346,2.608v.756a3.132,3.132,0,0,0,2.324,3.069,3.018,3.018,0,0,0,.831.079A10.87,10.87,0,0,0,12.8,38.561v1.656a1.046,1.046,0,0,0-.676.305L9.314,43.331,4.175,45.574A7,7,0,0,0,.006,52.248L.628,66.91a1.053,1.053,0,0,0,1.051,1.008h.045a1.052,1.052,0,0,0,1.007-1.1L2.109,52.159a4.846,4.846,0,0,1,.667-2.651l2.762,3.315a5.851,5.851,0,0,1,1.354,3.739v10.3a1.052,1.052,0,1,0,2.1,0v-10.3a7.96,7.96,0,0,0-1.841-5.086L4.219,47.951a4.772,4.772,0,0,1,.8-.448L9.5,45.548l3.165,5.137a2.037,2.037,0,0,0,3.057.481l2.005-1.711V66.866a1.052,1.052,0,1,0,2.1,0V49.455l2.005,1.711a2.037,2.037,0,0,0,3.057-.481l3.165-5.137L32.533,47.5a4.777,4.777,0,0,1,.8.448L30.4,51.475a7.959,7.959,0,0,0-1.841,5.086v10.3a1.052,1.052,0,1,0,2.1,0v-10.3a5.851,5.851,0,0,1,1.354-3.739l2.762-3.315a4.846,4.846,0,0,1,.667,2.651L34.82,66.821a1.053,1.053,0,0,0,1.007,1.1h.045a1.052,1.052,0,0,0,1.051-1.008l.621-14.663A7,7,0,0,0,33.375,45.574Zm-14.6-38.4a4.822,4.822,0,0,1,4.687,3.364,13.346,13.346,0,0,0-9.373,0A4.822,4.822,0,0,1,18.775,7.177ZM10.138,31.051a2.05,2.05,0,0,0-2.131-1.67.909.909,0,0,1-.275-.023,1.028,1.028,0,0,1-.7-1.02v-.756a1,1,0,0,1,.743-1,.915.915,0,0,1,.9.345,1.467,1.467,0,0,0,2.017.317,7.634,7.634,0,0,0,1.7-1.657,1.052,1.052,0,0,0-1.683-1.264,5.579,5.579,0,0,1-.8.863,3.015,3.015,0,0,0-1.588-.7,9.8,9.8,0,0,1-.3-2.419A10.537,10.537,0,0,1,18.775,11.8,10.537,10.537,0,0,1,29.538,22.067a9.8,9.8,0,0,1-.3,2.414,4.827,4.827,0,0,0-.819.135l-.791-.651a2.02,2.02,0,0,0-1.4-.46c-1.547.091-9.469.3-13.534-4.564a1.052,1.052,0,1,0-1.615,1.35,15.041,15.041,0,0,0,8.739,4.822,25.759,25.759,0,0,0,6.5.5l1.234,1.015a1.05,1.05,0,0,0,1.2.1,2.322,2.322,0,0,1,1.037-.138.993.993,0,0,1,.746.988v.767a1.028,1.028,0,0,1-.7,1.02.9.9,0,0,1-.275.023,2.052,2.052,0,0,0-2.131,1.67,8.782,8.782,0,0,1-17.275,0Zm4.274,18.463-3.165-5.138,1.622-1.622,4.358,4.358Zm4.364-3.829L14.9,41.815V39.638a10.88,10.88,0,0,0,7.741,0v2.177Zm4.364,3.829-2.814-2.4,4.358-4.358L26.3,44.376Z" transform="translate(0 -5.072)" fill="#e6002d"/>
        </g>
      </g>
      <g id="グループ_1089" data-name="グループ 1089" transform="translate(10.831 50.895)">
        <g id="グループ_1088" data-name="グループ 1088">
          <path id="パス_876" data-name="パス 876" d="M16.217,62.453H13.263a1.052,1.052,0,1,0,0,2.1h2.954a1.052,1.052,0,1,0,0-2.1Z" transform="translate(-12.211 -62.453)" fill="#e6002d"/>
        </g>
      </g>
    </g>
  </g>
</svg>
