<svg xmlns="http://www.w3.org/2000/svg" xmlns:xlink="http://www.w3.org/1999/xlink" width="71" height="72" viewBox="0 0 71 72">
  <defs>
    <clipPath id="clip-path">
      <rect id="長方形_448" data-name="長方形 448" width="71" height="72" transform="translate(0.315 -0.321)" fill="#e6002d" stroke="#707070" stroke-width="1"/>
    </clipPath>
  </defs>
  <g id="マスクグループ_44" data-name="マスクグループ 44" transform="translate(-0.315 0.32)" clip-path="url(#clip-path)">
    <g id="customer-service" transform="translate(0.169 -0.201)">
      <path id="パス_877" data-name="パス 877" d="M63.49,26.185H47.75V9.751a8.907,8.907,0,0,0-8.9-8.9H10.14a8.907,8.907,0,0,0-8.9,8.9V28.892a8.907,8.907,0,0,0,8.9,8.9h.673v5.458a4.1,4.1,0,0,0,4.1,4.118,4.032,4.032,0,0,0,2.9-1.223l8.07-8.026v16.1a8.912,8.912,0,0,0,8.906,8.9H47.421L55.8,71.455a4.091,4.091,0,0,0,7.024-2.87V63.117h.664a8.911,8.911,0,0,0,8.907-8.9V35.079a8.912,8.912,0,0,0-8.907-8.894ZM25.5,34.351a1.719,1.719,0,0,0-1.213.5l-8.924,8.875a.608.608,0,0,1-.7.151.64.64,0,0,1-.414-.63V36.07a1.719,1.719,0,0,0-1.719-1.719H10.14a5.464,5.464,0,0,1-5.458-5.458V9.751A5.464,5.464,0,0,1,10.14,4.293H38.851A5.467,5.467,0,0,1,44.31,9.75V28.891a5.465,5.465,0,0,1-5.46,5.458H25.5ZM68.959,54.222a5.469,5.469,0,0,1-5.469,5.457H61.107A1.72,1.72,0,0,0,59.388,61.4v7.187a.636.636,0,0,1-.412.625.629.629,0,0,1-.727-.17l-8.906-8.859a1.722,1.722,0,0,0-1.213-.5H34.788a5.469,5.469,0,0,1-5.468-5.457V37.79h9.53a8.9,8.9,0,0,0,8.86-8.165H63.489a5.468,5.468,0,0,1,5.469,5.456V54.222Z" transform="translate(-1.243 -0.854)" fill="#e6002d"/>
      <g id="グループ_1090" data-name="グループ 1090" transform="translate(34.715 41.272)">
        <path id="パス_878" data-name="パス 878" d="M42.919,47.385a2.537,2.537,0,1,0,2.539,2.537A2.541,2.541,0,0,0,42.919,47.385Z" transform="translate(-40.382 -47.385)" fill="#e6002d"/>
        <path id="パス_879" data-name="パス 879" d="M54.92,47.385a2.537,2.537,0,1,0,2.539,2.537A2.541,2.541,0,0,0,54.92,47.385Z" transform="translate(-41.739 -47.385)" fill="#e6002d"/>
        <path id="パス_880" data-name="パス 880" d="M66.92,47.385a2.537,2.537,0,1,0,2.539,2.537A2.541,2.541,0,0,0,66.92,47.385Z" transform="translate(-43.095 -47.385)" fill="#e6002d"/>
      </g>
      <g id="グループ_1091" data-name="グループ 1091" transform="translate(17.696 9.031)">
        <path id="パス_881" data-name="パス 881" d="M26.59,28.207a1.822,1.822,0,0,0,0,3.643,1.821,1.821,0,0,0,0-3.643Z" transform="translate(-21.601 -12.977)" fill="#e6002d"/>
        <path id="パス_882" data-name="パス 882" d="M26.534,11.036c-3.659,0-5.34,2.169-5.34,3.632a1.555,1.555,0,0,0,1.627,1.545c1.464,0,.868-2.087,3.632-2.087,1.355,0,2.439.6,2.439,1.843,0,1.464-1.518,2.3-2.412,3.063a4.962,4.962,0,0,0-1.817,4.121c0,1.41.379,1.816,1.491,1.816,1.328,0,1.6-.6,1.6-1.112a3.405,3.405,0,0,1,1.518-3.388c.731-.57,3.035-2.413,3.035-4.961s-2.3-4.471-5.772-4.471Z" transform="translate(-21.194 -11.036)" fill="#e6002d"/>
      </g>
    </g>
  </g>
</svg>
