<svg xmlns="http://www.w3.org/2000/svg" xmlns:xlink="http://www.w3.org/1999/xlink" width="72" height="72" viewBox="0 0 72 72">
  <defs>
    <clipPath id="clip-path">
      <rect id="長方形_382" data-name="長方形 382" width="72" height="72" transform="translate(777 1471)" fill="#e6002d" stroke="#707070" stroke-width="1"/>
    </clipPath>
  </defs>
  <g id="マスクグループ_31" data-name="マスクグループ 31" transform="translate(-777 -1471)" clip-path="url(#clip-path)">
    <g id="interview" transform="translate(777 1471)">
      <path id="_x35_" d="M46.835,0H72.678a3.545,3.545,0,0,1,3.4,3.635V19.913a3.545,3.545,0,0,1-3.4,3.635H46.835a3.535,3.535,0,0,1-3.4-3.635V16.964l-5.5-2.806a2.421,2.421,0,0,1,0-4.257c1.834-.94,3.667-1.865,5.5-2.806V3.635A3.534,3.534,0,0,1,46.835,0ZM72.678,2.248H46.835a1.3,1.3,0,0,0-1.148,1.387V7.78a1.1,1.1,0,0,1-.622.988c-2.041,1.052-4.066,2.1-6.106,3.141a.135.135,0,0,0,0,.239l6.011,3.093a1.112,1.112,0,0,1,.717,1.036v3.635A1.3,1.3,0,0,0,46.835,21.3H72.679a1.3,1.3,0,0,0,1.148-1.387V3.635a1.3,1.3,0,0,0-1.149-1.387Z" transform="translate(-4.075)" fill="#e6002d"/>
      <path id="_x34_" d="M53.293,8.633a1.124,1.124,0,0,1,0-2.248H70.161a1.124,1.124,0,0,1,0,2.248Zm0,9.965a1.124,1.124,0,0,1,0-2.248H63.306a1.124,1.124,0,0,1,0,2.248Zm0-4.99a1.124,1.124,0,0,1,0-2.248H70.161a1.124,1.124,0,0,1,0,2.248Z" transform="translate(-5.798 -0.709)" fill="#e6002d"/>
      <path id="_x33_" d="M14.476,21.284a5.852,5.852,0,0,1-.893-.43l-.176,1.291,3.7,4.161,3.683-4.161-.175-1.291a6.355,6.355,0,0,1-.877.43,8.038,8.038,0,0,1-5.26,0Zm-2.933-2.072-.111-.1a7.74,7.74,0,0,1-2.567-5.931V8.019C8.865,3.14,12.309,0,17.107,0s8.226,3.14,8.226,8.019v5.166a7.742,7.742,0,0,1-2.567,5.931l-.112.1.367,2.71,1.929,1.69,5.469,2.376a6.3,6.3,0,0,1,2.774,2.36,6.589,6.589,0,0,1,1,3.539V35a1.123,1.123,0,0,1-1.116,1.132A1.137,1.137,0,0,1,31.95,35V31.886a4.185,4.185,0,0,0-.654-2.328,4.011,4.011,0,0,0-1.77-1.514L25.047,26.1l-1.882,5.883a1.123,1.123,0,0,1-1.4.733,1.245,1.245,0,0,1-.319-.175L18.223,30.2V35a1.123,1.123,0,0,1-1.115,1.132A1.138,1.138,0,0,1,15.975,35V30.2l-3.2,2.36-.335.159a1.13,1.13,0,0,1-1.4-.733L9.168,26.1l-4.5,1.945A4.017,4.017,0,0,0,2.9,29.558a4.324,4.324,0,0,0-.654,2.328V45.995a1.123,1.123,0,0,1-1.116,1.132A1.136,1.136,0,0,1,0,46V31.886a6.468,6.468,0,0,1,1.02-3.539,6.168,6.168,0,0,1,2.758-2.36l5.469-2.375,1.929-1.69Zm1.865-1.339a.765.765,0,0,1,.16.159A5.951,5.951,0,0,0,15.29,19.2a6.092,6.092,0,0,0,3.62,0,5.97,5.97,0,0,0,1.722-1.164.86.86,0,0,1,.175-.159c.16-.143.319-.287.462-.431a5.518,5.518,0,0,0,1.817-4.256V10.794a7.316,7.316,0,0,1-7.669-2.662A4.288,4.288,0,0,1,11.129,9.55v3.635a5.5,5.5,0,0,0,1.8,4.256l.478.431Zm-1.275,6.2-.989.861,1.546,4.879L15.448,27.8Zm9.933,0-3.3,3.731,2.742,2.009,1.547-4.879ZM6.6,38.471a1.137,1.137,0,0,1,1.132-1.132,1.123,1.123,0,0,1,1.116,1.132V46a1.123,1.123,0,0,1-1.116,1.132A1.136,1.136,0,0,1,6.6,46ZM11.16,7.254A2.551,2.551,0,0,0,14.4,5.5a1.11,1.11,0,0,1,2.1.08s1.419,4.1,6.585,2.918V8.019c0-3.635-2.423-5.771-5.979-5.771-3.2,0-5.611,1.738-5.947,5.006Z" transform="translate(0 0)" fill="#e6002d"/>
      <path id="_x32_" d="M50.975,52.432a8.541,8.541,0,0,1-3.061-6.761V39.836c0-5.405,3.81-8.9,9.152-8.9,5.325,0,9.135,3.492,9.135,8.9v5.835a8.531,8.531,0,0,1-3.045,6.761l.447,4.639,8.434,3.173a7.005,7.005,0,0,1,4.177,6.521v7.541a1.136,1.136,0,0,1-1.132,1.132,1.123,1.123,0,0,1-1.116-1.132V66.765a4.716,4.716,0,0,0-2.806-4.448l-8.991-3.4A17.04,17.04,0,0,0,52,58.634l-9.04,3.683a4.728,4.728,0,0,0-2.79,4.448v7.541a1.137,1.137,0,0,1-1.132,1.132,1.123,1.123,0,0,1-1.115-1.132V66.765A7,7,0,0,1,42.1,60.244L50.562,56.8Zm9.518,1.115H53.622a.568.568,0,0,0-.558.51L52.872,56.1a19.4,19.4,0,0,1,8.4.239l-.223-2.28a.546.546,0,0,0-.558-.51Zm-6.967-2.216h7.063a2.433,2.433,0,0,0,1.371-.813,6.447,6.447,0,0,0,1.993-4.846V39.836c0-4.178-2.79-6.649-6.887-6.649s-6.9,2.472-6.9,6.649v5.835a6.465,6.465,0,0,0,2.28,5.086,1.814,1.814,0,0,0,1.083.574Z" transform="translate(-4.213 -3.438)" fill="#e6002d"/>
      <path id="_x31_" d="M12.147,53.141l1.865-10.682a3.7,3.7,0,0,1,3.508-2.982H36.475a2.8,2.8,0,0,1,2.791,3.364L36.874,56.472a3.944,3.944,0,0,1-3.747,3.189H8.751a2.788,2.788,0,0,1-2.806-1.977L5.18,54.543a1.13,1.13,0,0,1,1.084-1.4h5.883Zm14.317-4.735a1.109,1.109,0,0,1,1.116,1.115,1.123,1.123,0,0,1-1.116,1.132,1.137,1.137,0,0,1-1.132-1.132A1.124,1.124,0,0,1,26.464,48.406ZM13.837,56.473a.733.733,0,0,0,.749.94H33.128a1.662,1.662,0,0,0,1.531-1.324L37.05,42.459a.558.558,0,0,0-.574-.733H17.52a1.422,1.422,0,0,0-1.291,1.116q-1.2,6.815-2.392,13.632Zm-2.089-1.084H7.7l.43,1.754a.563.563,0,0,0,.622.271h2.9a3.7,3.7,0,0,1-.032-1.324Z" transform="translate(-0.572 -4.386)" fill="#e6002d"/>
    </g>
  </g>
</svg>
