<svg xmlns="http://www.w3.org/2000/svg" width="53" height="53" viewBox="0 0 53 53">
  <g id="コンポーネント_14_2" data-name="コンポーネント 14 – 2" transform="translate(53 53) rotate(180)">
    <circle id="楕円形_14" data-name="楕円形 14" cx="26.5" cy="26.5" r="26.5" fill="#1a1a1a"/>
    <g id="left-arrow" transform="translate(-81.48 16)">
      <g id="グループ_727" data-name="グループ 727" transform="translate(101.48 0)">
        <path id="パス_696" data-name="パス 696" d="M105.624,10.5l7.854-7.854a1.151,1.151,0,0,0,0-1.624L112.79.336a1.15,1.15,0,0,0-1.624,0l-9.351,9.351a1.159,1.159,0,0,0,0,1.63l9.342,9.342a1.15,1.15,0,0,0,1.624,0l.688-.688a1.15,1.15,0,0,0,0-1.624Z" transform="translate(-101.48 0)" fill="#fff"/>
      </g>
    </g>
  </g>
</svg>
